<svg viewBox="0 0 24 24" xmlns="http://www.w3.org/2000/svg" fill="#0056D2">
  <path d="M12 0C5.373 0 0 5.373 0 12s5.373 12 12 12 12-5.373 12-12S18.627 0 12 0zm4.566 17.518c-1.398.818-3.037 1.257-4.735 1.257-5.066 0-9.18-4.115-9.18-9.18 0-5.066 4.114-9.18 9.18-9.18 1.698 0 3.337.44 4.735 1.258l-1.95 3.378c-.787-.454-1.687-.696-2.607-.696-2.924 0-5.302 2.378-5.302 5.302 0 2.924 2.378 5.302 5.302 5.302.92 0 1.82-.242 2.607-.697l1.95 3.378zM24 12c0 .918-.112 1.802-.32 2.647l-3.378-1.95c.08-.225.132-.456.132-.697 0-1.215-.986-2.202-2.202-2.202-1.215 0-2.202.987-2.202 2.202 0 1.216.987 2.202 2.202 2.202.241 0 .472-.052.697-.132l1.95 3.378C18.66 20.89 15.5 22.427 12 22.427v-3.486c2.096 0 3.978-1.036 5.116-2.646l2.977 1.719c1.233-1.696 1.907-3.766 1.907-5.998 0-2.231-.674-4.301-1.907-5.998l-2.977 1.72c-1.138-1.61-3.02-2.647-5.116-2.647V1.573c3.5 0 6.66 1.537 8.79 4.02l-1.95 3.378c-.225-.08-.456-.132-.697-.132-1.215 0-2.202.986-2.202 2.202 0 1.215.987 2.202 2.202 2.202.241 0 .472-.052.697-.132L23.68 9.353c.208.845.32 1.729.32 2.647z"/>
</svg>
