<svg xmlns="http://www.w3.org/2000/svg" fill="none" viewBox="0 0 98.47 24">
<path fill-rule="evenodd" clip-rule="evenodd" d="M0 21.8372C0 23.1506 0.852709 24 2.16281 24H8.48135C12.2516 24 15.3357 22.7258 17.4299 20.4912H0V21.8372ZM8.48135 0H2.16281C0.852709 0 0 0.849442 0 2.16281V3.50885H17.4332C15.3357 1.27416 12.2516 0 8.48135 0ZM13.9962 15.4206C13.9962 16.4824 14.6888 17.1718 15.7539 17.1718H19.5404C19.9684 16.1067 20.2592 14.9371 20.3931 13.6727H15.7539C14.6888 13.6727 13.9962 14.3621 13.9962 15.4239V15.4206ZM8.74925 8.58916C8.74925 9.65097 9.44187 10.3403 10.5069 10.3403H20.3931C20.2592 9.07596 19.9717 7.90634 19.5404 6.84127H10.5069C9.44187 6.84127 8.74925 7.53063 8.74925 8.59243V8.58916ZM10.5037 15.4206C10.5037 14.3588 9.81105 13.6695 8.74598 13.6695H0V17.1685H8.74598C9.81105 17.1685 10.5037 16.4792 10.5037 15.4174V15.4206ZM5.25674 8.58916C5.25674 7.52736 4.56412 6.83801 3.49905 6.83801H0V10.3371H3.49905C4.56412 10.3371 5.25674 9.6477 5.25674 8.5859V8.58916Z" fill="#F73B3B"/>
<path d="M87.5776 6.6582C88.4107 6.65821 89.1392 6.87703 89.7632 7.31152C90.3872 7.74605 90.8739 8.36363 91.2202 9.16406C91.5698 9.96449 91.7427 10.9056 91.7427 11.9902C91.7426 13.0747 91.5697 14.0187 91.2202 14.8223C90.8706 15.6259 90.3872 16.2468 89.7632 16.6846C89.1392 17.1223 88.4107 17.3447 87.5776 17.3447C86.8752 17.3447 86.2573 17.1586 85.728 16.7861C85.1989 16.4137 84.7976 15.9004 84.5298 15.2471H84.4448V19.9619H82.0366V6.84473H84.4448V8.73633H84.5591C84.8857 8.06666 85.2973 7.55044 85.7905 7.19434C86.2839 6.83822 86.8817 6.6582 87.5776 6.6582ZM64.0347 6.6582C65.276 6.6582 66.279 6.96536 67.0435 7.57617C67.8079 8.1871 68.2662 8.98088 68.4165 9.95117L66.0835 10.4512C65.9626 9.87943 65.7335 9.43477 65.397 9.11133C65.0572 8.7881 64.603 8.62793 64.0347 8.62793C63.2997 8.62799 62.7182 8.92239 62.2837 9.51367C61.8526 10.1017 61.6334 10.9345 61.6333 12.0059C61.6333 13.0775 61.8521 13.8559 62.2866 14.4668C62.7211 15.0777 63.3064 15.3848 64.0415 15.3848C64.5674 15.3848 65.0116 15.2406 65.3677 14.9531C65.7238 14.6656 65.9562 14.2345 66.064 13.666H68.4712C68.334 14.8192 67.8866 15.7239 67.1353 16.374C66.3838 17.0274 65.3516 17.3516 64.0415 17.3516C63.0387 17.3516 62.1665 17.1323 61.4282 16.6914C60.6899 16.2536 60.114 15.6328 59.7056 14.8291C59.2972 14.0254 59.0952 13.0839 59.0952 12.0059C59.0953 10.9281 59.2974 9.98089 59.7056 9.18066C60.114 8.38023 60.6866 7.76235 61.4282 7.32129C62.1697 6.8804 63.0352 6.66117 64.0347 6.66113V6.6582ZM37.0229 17.1484H34.5952V15.2568H34.5005C34.1803 15.9201 33.7718 16.4333 33.272 16.7959C32.7722 17.1585 32.1744 17.3378 31.4722 17.3379V17.3418C30.6457 17.3418 29.9168 17.1226 29.2896 16.6816C28.6623 16.2439 28.1753 15.6195 27.8257 14.8125C27.4762 14.0056 27.3032 13.0611 27.3032 11.9766C27.3033 10.8921 27.4762 9.95134 27.8257 9.1543C28.172 8.35713 28.6587 7.74248 29.2827 7.30469C29.9067 6.87017 30.6326 6.65137 31.4624 6.65137C32.1712 6.65143 32.7884 6.83797 33.3208 7.20703C33.85 7.5762 34.2489 8.06942 34.5103 8.68359H34.5952V3.93945H37.0229V17.1484ZM53.5083 6.66113C54.7007 6.66113 55.6548 6.89645 56.3735 7.37012C57.0923 7.84384 57.5466 8.50118 57.7427 9.34082L55.4458 9.80078C55.3249 9.3729 55.1126 9.04927 54.8022 8.82715C54.4919 8.60501 54.0572 8.49414 53.4985 8.49414C52.9856 8.49414 52.5645 8.59271 52.2378 8.79199C51.9111 8.99128 51.7476 9.27208 51.7476 9.64453C51.7476 10.0168 51.8982 10.3008 52.1987 10.4805C52.4993 10.6633 52.8882 10.7976 53.3618 10.8857C53.8354 10.9739 54.3383 11.0658 54.8706 11.1572C55.4031 11.252 55.9066 11.3922 56.3804 11.585C56.854 11.7777 57.2397 12.0654 57.5435 12.4541C57.8439 12.8429 57.9937 13.3788 57.9937 14.0615C57.9936 15.0905 57.6022 15.8944 56.8247 16.4727C56.0439 17.0542 54.9884 17.3418 53.6587 17.3418H53.6519C52.1983 17.3418 51.0811 17.0475 50.3003 16.4629C49.5195 15.8781 49.0978 15.071 49.0356 14.0518H51.4243C51.5747 15.0284 52.3192 15.5185 53.6519 15.5186C54.23 15.5186 54.6942 15.4108 55.0503 15.1953C55.4031 14.9797 55.5825 14.6593 55.5825 14.2412C55.5825 13.872 55.4329 13.597 55.1323 13.4238C54.8318 13.2474 54.4423 13.1175 53.9653 13.0293C53.4885 12.9411 52.9856 12.8496 52.4565 12.7549C51.9273 12.6601 51.4238 12.516 50.9468 12.3232C50.4699 12.1305 50.0813 11.8363 49.7808 11.4443C49.4802 11.0523 49.3296 10.5129 49.3296 9.83008C49.3297 8.84694 49.7121 8.07294 50.4731 7.50781C51.2344 6.94262 52.2472 6.66114 53.5083 6.66113ZM43.4233 6.65527C44.3249 6.65535 45.1354 6.86088 45.854 7.27246C46.5725 7.68408 47.1245 8.32104 47.5132 9.18652C47.902 10.0523 48.0493 11.177 47.9546 12.5557H41.0317C41.1004 13.4668 41.3549 14.1721 41.7925 14.6816C42.2302 15.188 42.7759 15.4433 43.4292 15.4434C44.4975 15.4434 45.181 14.9763 45.4849 14.0518L45.481 14.0449H47.9546C47.8533 14.5807 47.6304 15.0936 47.271 15.5771C46.8855 16.0998 46.3693 16.521 45.7192 16.8477C45.0691 17.1743 44.308 17.3379 43.4292 17.3379C42.4394 17.3379 41.5702 17.1191 40.8286 16.6846C40.0871 16.2501 39.5123 15.6324 39.104 14.832C38.6957 14.0349 38.4927 13.0872 38.4927 12.0156C38.4927 10.9442 38.6989 10.0067 39.1138 9.20312C39.5287 8.40276 40.1069 7.77569 40.8452 7.32812C41.5868 6.88053 42.4465 6.65527 43.4233 6.65527ZM75.7837 9.05957H74.5718C73.8498 9.05957 73.3233 9.31098 72.9868 9.81738C72.6503 10.3238 72.4839 11.1111 72.4839 12.1826V17.1582H70.0659L70.063 17.1553V6.84766H72.3501V8.96484H72.4546C72.68 8.06966 73.0003 7.47177 73.4087 7.17773C73.8202 6.88383 74.2936 6.73637 74.8325 6.73633H75.7837V9.05957ZM96.2749 6.84766H98.4663V8.76855H96.2749V15.2402H98.4663V17.1582H95.8433C95.1572 17.1582 94.6576 16.9914 94.3374 16.6582C94.0173 16.325 93.8569 15.8712 93.8569 15.293V8.76562H92.2856V6.84766H93.9126L94.0981 4.52441H96.2749V6.84766ZM79.7729 17.1553H77.355V6.84766H79.7729V17.1553ZM86.8228 8.69043C86.1008 8.69047 85.5261 8.99103 85.0981 9.58887C84.6669 10.1867 84.4546 10.9869 84.4546 11.9932C84.4546 12.9994 84.6702 13.8295 85.0981 14.4404C85.5261 15.0479 86.1041 15.3515 86.8228 15.3516C87.5415 15.3516 88.1067 15.0445 88.5347 14.4336C88.9626 13.8227 89.1753 13.0092 89.1753 11.9932C89.1753 10.9771 88.9626 10.1959 88.5347 9.59473C88.1067 8.99385 87.5381 8.69336 86.8228 8.69336V8.69043ZM32.2261 8.66113C31.501 8.66127 30.9323 8.96149 30.5044 9.5625C30.0765 10.1636 29.8647 10.971 29.8647 11.9805C29.8648 12.9831 30.0767 13.7899 30.5044 14.3975C30.929 15.005 31.5043 15.3094 32.2261 15.3096C32.948 15.3096 33.5302 15.0057 33.9517 14.4014C34.3763 13.797 34.5854 12.9899 34.5854 11.9805C34.5854 10.9709 34.3731 10.1636 33.9517 9.5625C33.5269 8.96136 32.9514 8.66113 32.2261 8.66113ZM43.4292 8.47168C42.8545 8.47172 42.3548 8.65745 41.9302 9.02637C41.5055 9.39551 41.2237 10.0197 41.0864 10.8984H45.5269C45.5039 10.1472 45.3042 9.55229 44.9351 9.12109C44.5627 8.68687 44.0628 8.47168 43.4292 8.47168ZM79.8677 5.21777H77.2241V2.89453H79.8677V5.21777Z" fill="#651A39"/>
</svg>