<svg viewBox="0 0 24 24" xmlns="http://www.w3.org/2000/svg" fill="#1F2937">
  <path d="M2.28 7.375c0-2.88 2.16-5.12 5.24-5.12 3.12 0 5.28 2.24 5.28 5.12 0 2.88-2.16 5.12-5.28 5.12-3.08 0-5.24-2.24-5.24-5.12zm8.56 0c0-2.12-1.4-3.52-3.32-3.52-1.92 0-3.32 1.4-3.32 3.52 0 2.16 1.4 3.52 3.32 3.52 1.92 0 3.32-1.36 3.32-3.52zm8.08 6.44c-2.4 0-3.68-1.44-4.16-3.88h-.04v7.76h-1.92V2.635h1.92v3.08h.04c.48-2.48 1.76-3.84 4.16-3.84 2.84 0 4.56 2.16 4.56 5.28 0 3.16-1.72 5.28-4.56 5.28zm-.24-8.88c-1.68 0-2.72 1.2-2.72 3.6 0 2.4 1.04 3.6 2.72 3.6 1.72 0 2.76-1.2 2.76-3.6 0-2.4-1.04-3.6-2.76-3.6zM24 16.635h-1.84l-2.08-3.04-2.08 3.04h-1.84l3.04-4.24-2.92-4h1.88l1.96 2.84 1.96-2.84h1.88l-2.92 4L24 16.635z"/>
</svg>
