<svg viewBox="0 0 24 24" xmlns="http://www.w3.org/2000/svg" fill="#FFFFFF">
  <path d="M.113 10.27A13.026 13.026 0 000 11.48h18.23c-.064-.125-.15-.237-.235-.347-3.117-4.027-4.793-3.677-7.19-3.78-.8-.034-1.34-.048-4.524-.048-1.704 0-3.555.005-5.358.01-.234.63-.459 1.24-.567 1.737h9.342v1.216H.113v.002zm18.26 2.426H.009c.02.326.05.645.094.961h16.955c.754 0 1.179-.429 1.315-.96zm-17.318 4.28s2.81 6.902 10.93 7.024c4.855 0 9.027-2.883 10.9-6.902H18.73c-.042.125-.098.243-.153.359-2.072 4.398-5.35 4.153-7.585 4.153-1.637 0-3.568.011-5.467.02l-.659-1.654H18.28c.459 0 .809-.323.948-.96H1.543l.034-.08a13.34 13.34 0 00.32-1.226h18.067V12.7zm2.428-11.458c.241-.635.474-1.25.59-1.736h-9.343V1.06h12.18c-.015-.327-.042-.646-.082-.962H3.774c-.754 0-1.18.43-1.316.96h17.319s-2.811-6.901-10.93-7.023c-4.854 0-9.027 2.883-10.9 6.901H5.27c.042-.124.098-.242.152-.358C7.494 3.204 10.77 3.45 13.007 3.45c1.637 0 3.568-.012 5.467-.02l.66 1.653H5.722c-.46 0-.81.323-.949.96H18.28a11.192 11.192 0 011.666 1.255z"/>
</svg>
