<svg width="512" height="513" viewBox="0 0 512 513" fill="none" xmlns="http://www.w3.org/2000/svg">
<path d="M296.261 256.743L464.21 234.962C477.348 233.258 488.992 243.489 488.992 256.738C488.992 269.985 477.349 280.216 464.211 278.513L296.261 256.743Z" fill="#06AA63"/>
<path d="M274.854 219.661L339.965 63.3229C345.059 51.0928 359.741 46.1246 371.214 52.7488C382.687 59.3727 385.726 74.5712 377.683 85.0974L274.854 219.661Z" fill="#06AA63"/>
<path d="M274.843 293.826L377.68 428.383C385.725 438.909 382.686 454.108 371.213 460.732C359.74 467.356 345.058 462.389 339.964 450.16L274.843 293.826Z" fill="#06AA63"/>
<path d="M210.61 256.743L42.6609 234.962C29.5226 233.258 17.8789 243.489 17.8789 256.738C17.8789 269.985 29.5217 280.216 42.6596 278.513L210.61 256.743Z" fill="#06AA63"/>
<path d="M232.028 293.826L129.191 428.383C121.146 438.909 124.185 454.108 135.658 460.732C147.131 467.356 161.813 462.389 166.907 450.16L232.028 293.826Z" fill="#06AA63"/>
<path d="M232.017 219.661L166.905 63.3229C161.812 51.0928 147.13 46.1246 135.656 52.7488C124.183 59.3727 121.144 74.5712 129.188 85.0974L232.017 219.661Z" fill="#06AA63"/>
<path d="M253.439 299.598L241.493 391.712C240.558 398.917 246.17 405.304 253.436 405.304C260.702 405.304 266.313 398.918 265.379 391.712L253.439 299.598Z" fill="#06AA63"/>
<path d="M216.349 278.196L130.603 313.907C123.895 316.701 121.17 324.753 124.803 331.046C128.436 337.339 136.772 339.005 142.545 334.594L216.349 278.196Z" fill="#06AA63"/>
<path d="M216.346 235.37L142.546 178.967C136.772 174.555 128.436 176.221 124.803 182.514C121.17 188.807 123.894 196.859 130.602 199.653L216.346 235.37Z" fill="#06AA63"/>
<path d="M253.439 213.946L241.493 121.832C240.558 114.626 246.17 108.24 253.436 108.24C260.702 108.24 266.313 114.625 265.379 121.831L253.439 213.946Z" fill="#06AA63"/>
<path d="M290.526 235.37L364.326 178.967C370.099 174.555 378.435 176.221 382.068 182.514C385.701 188.807 382.977 196.859 376.27 199.653L290.526 235.37Z" fill="#06AA63"/>
<path d="M290.522 278.196L376.269 313.907C382.976 316.701 385.701 324.753 382.068 331.046C378.435 337.339 370.099 339.005 364.326 334.594L290.522 278.196Z" fill="#06AA63"/>
</svg>
